<mxfile host="app.diagrams.net" agent="Mozilla/5.0 (Windows NT 10.0; Win64; x64) AppleWebKit/537.36 (KHTML, like Gecko) Chrome/133.0.0.0 Safari/537.36" version="26.0.14">
  <diagram name="Page-1" id="Ls5SoLWd8TUTCqacASa2">
    <mxGraphModel dx="1050" dy="557" grid="1" gridSize="10" guides="1" tooltips="1" connect="1" arrows="1" fold="1" page="1" pageScale="1" pageWidth="827" pageHeight="1169" math="0" shadow="0">
      <root>
        <mxCell id="0" />
        <mxCell id="1" parent="0" />
        <mxCell id="R0VtYiPALvJFC1zYASZe-21" style="edgeStyle=orthogonalEdgeStyle;rounded=0;orthogonalLoop=1;jettySize=auto;html=1;exitX=1;exitY=0.5;exitDx=0;exitDy=0;entryX=0;entryY=0.5;entryDx=0;entryDy=0;" edge="1" parent="1" source="R0VtYiPALvJFC1zYASZe-1" target="R0VtYiPALvJFC1zYASZe-14">
          <mxGeometry relative="1" as="geometry">
            <Array as="points">
              <mxPoint x="510" y="270" />
              <mxPoint x="700" y="270" />
            </Array>
          </mxGeometry>
        </mxCell>
        <mxCell id="R0VtYiPALvJFC1zYASZe-22" value="Event Management Report" style="edgeLabel;html=1;align=center;verticalAlign=middle;resizable=0;points=[];" vertex="1" connectable="0" parent="R0VtYiPALvJFC1zYASZe-21">
          <mxGeometry x="0.0267" y="2" relative="1" as="geometry">
            <mxPoint x="-18" y="2" as="offset" />
          </mxGeometry>
        </mxCell>
        <mxCell id="R0VtYiPALvJFC1zYASZe-31" style="edgeStyle=orthogonalEdgeStyle;rounded=0;orthogonalLoop=1;jettySize=auto;html=1;exitX=0.967;exitY=0.686;exitDx=0;exitDy=0;entryX=0;entryY=0.75;entryDx=0;entryDy=0;exitPerimeter=0;" edge="1" parent="1" source="R0VtYiPALvJFC1zYASZe-1">
          <mxGeometry relative="1" as="geometry">
            <mxPoint x="509.9999999999999" y="299.5" as="sourcePoint" />
            <mxPoint x="702.4" y="298.5" as="targetPoint" />
          </mxGeometry>
        </mxCell>
        <mxCell id="R0VtYiPALvJFC1zYASZe-32" value="User Approval Status" style="edgeLabel;html=1;align=center;verticalAlign=middle;resizable=0;points=[];" vertex="1" connectable="0" parent="R0VtYiPALvJFC1zYASZe-31">
          <mxGeometry x="0.0445" relative="1" as="geometry">
            <mxPoint as="offset" />
          </mxGeometry>
        </mxCell>
        <mxCell id="R0VtYiPALvJFC1zYASZe-43" style="edgeStyle=orthogonalEdgeStyle;rounded=0;orthogonalLoop=1;jettySize=auto;html=1;exitX=0;exitY=0;exitDx=0;exitDy=0;entryX=1;entryY=0.5;entryDx=0;entryDy=0;" edge="1" parent="1" source="R0VtYiPALvJFC1zYASZe-1" target="R0VtYiPALvJFC1zYASZe-2">
          <mxGeometry relative="1" as="geometry">
            <Array as="points">
              <mxPoint x="410" y="245" />
              <mxPoint x="410" y="210" />
            </Array>
          </mxGeometry>
        </mxCell>
        <mxCell id="R0VtYiPALvJFC1zYASZe-44" value="Message Notification" style="edgeLabel;html=1;align=center;verticalAlign=middle;resizable=0;points=[];" vertex="1" connectable="0" parent="R0VtYiPALvJFC1zYASZe-43">
          <mxGeometry x="0.1243" y="-1" relative="1" as="geometry">
            <mxPoint as="offset" />
          </mxGeometry>
        </mxCell>
        <mxCell id="R0VtYiPALvJFC1zYASZe-47" style="edgeStyle=orthogonalEdgeStyle;rounded=0;orthogonalLoop=1;jettySize=auto;html=1;entryX=1;entryY=0.75;entryDx=0;entryDy=0;exitX=1;exitY=1;exitDx=0;exitDy=0;" edge="1" parent="1" source="R0VtYiPALvJFC1zYASZe-1" target="R0VtYiPALvJFC1zYASZe-3">
          <mxGeometry relative="1" as="geometry">
            <Array as="points">
              <mxPoint x="490" y="315" />
              <mxPoint x="490" y="385" />
            </Array>
          </mxGeometry>
        </mxCell>
        <mxCell id="R0VtYiPALvJFC1zYASZe-48" value="Event Response" style="edgeLabel;html=1;align=center;verticalAlign=middle;resizable=0;points=[];" vertex="1" connectable="0" parent="R0VtYiPALvJFC1zYASZe-47">
          <mxGeometry x="0.2811" y="2" relative="1" as="geometry">
            <mxPoint as="offset" />
          </mxGeometry>
        </mxCell>
        <mxCell id="R0VtYiPALvJFC1zYASZe-1" value="Alumni Connection Portal" style="ellipse;whiteSpace=wrap;html=1;" vertex="1" parent="1">
          <mxGeometry x="390" y="230" width="120" height="100" as="geometry" />
        </mxCell>
        <mxCell id="R0VtYiPALvJFC1zYASZe-6" style="edgeStyle=orthogonalEdgeStyle;rounded=0;orthogonalLoop=1;jettySize=auto;html=1;exitX=1;exitY=0.5;exitDx=0;exitDy=0;" edge="1" parent="1" source="R0VtYiPALvJFC1zYASZe-4" target="R0VtYiPALvJFC1zYASZe-2">
          <mxGeometry relative="1" as="geometry" />
        </mxCell>
        <mxCell id="R0VtYiPALvJFC1zYASZe-11" value="Specializes" style="edgeLabel;html=1;align=center;verticalAlign=middle;resizable=0;points=[];" vertex="1" connectable="0" parent="R0VtYiPALvJFC1zYASZe-6">
          <mxGeometry x="-0.0667" relative="1" as="geometry">
            <mxPoint as="offset" />
          </mxGeometry>
        </mxCell>
        <mxCell id="R0VtYiPALvJFC1zYASZe-7" style="edgeStyle=orthogonalEdgeStyle;rounded=0;orthogonalLoop=1;jettySize=auto;html=1;exitX=1;exitY=0.5;exitDx=0;exitDy=0;" edge="1" parent="1" source="R0VtYiPALvJFC1zYASZe-5" target="R0VtYiPALvJFC1zYASZe-2">
          <mxGeometry relative="1" as="geometry" />
        </mxCell>
        <mxCell id="R0VtYiPALvJFC1zYASZe-12" value="Specializes" style="edgeLabel;html=1;align=center;verticalAlign=middle;resizable=0;points=[];" vertex="1" connectable="0" parent="R0VtYiPALvJFC1zYASZe-7">
          <mxGeometry x="0.0615" y="-1" relative="1" as="geometry">
            <mxPoint as="offset" />
          </mxGeometry>
        </mxCell>
        <mxCell id="R0VtYiPALvJFC1zYASZe-33" style="edgeStyle=orthogonalEdgeStyle;rounded=0;orthogonalLoop=1;jettySize=auto;html=1;exitX=0.75;exitY=0;exitDx=0;exitDy=0;entryX=0.667;entryY=0.062;entryDx=0;entryDy=0;entryPerimeter=0;" edge="1" parent="1" source="R0VtYiPALvJFC1zYASZe-2" target="R0VtYiPALvJFC1zYASZe-1">
          <mxGeometry relative="1" as="geometry">
            <mxPoint x="480" y="220" as="targetPoint" />
            <Array as="points">
              <mxPoint x="280" y="140" />
              <mxPoint x="470" y="140" />
            </Array>
          </mxGeometry>
        </mxCell>
        <mxCell id="R0VtYiPALvJFC1zYASZe-34" value="Login/registration Request" style="edgeLabel;html=1;align=center;verticalAlign=middle;resizable=0;points=[];" vertex="1" connectable="0" parent="R0VtYiPALvJFC1zYASZe-33">
          <mxGeometry x="-0.1684" y="-1" relative="1" as="geometry">
            <mxPoint as="offset" />
          </mxGeometry>
        </mxCell>
        <mxCell id="R0VtYiPALvJFC1zYASZe-2" value="User" style="rounded=0;whiteSpace=wrap;html=1;" vertex="1" parent="1">
          <mxGeometry x="190" y="180" width="120" height="60" as="geometry" />
        </mxCell>
        <mxCell id="R0VtYiPALvJFC1zYASZe-3" value="Faculty" style="rounded=0;whiteSpace=wrap;html=1;" vertex="1" parent="1">
          <mxGeometry x="200" y="340" width="120" height="60" as="geometry" />
        </mxCell>
        <mxCell id="R0VtYiPALvJFC1zYASZe-4" value="Alumni" style="rounded=0;whiteSpace=wrap;html=1;" vertex="1" parent="1">
          <mxGeometry y="130" width="120" height="60" as="geometry" />
        </mxCell>
        <mxCell id="R0VtYiPALvJFC1zYASZe-5" value="Students" style="rounded=0;whiteSpace=wrap;html=1;" vertex="1" parent="1">
          <mxGeometry y="240" width="120" height="60" as="geometry" />
        </mxCell>
        <mxCell id="R0VtYiPALvJFC1zYASZe-8" style="edgeStyle=orthogonalEdgeStyle;rounded=0;orthogonalLoop=1;jettySize=auto;html=1;exitX=0.5;exitY=1;exitDx=0;exitDy=0;entryX=0.5;entryY=1;entryDx=0;entryDy=0;" edge="1" parent="1" target="R0VtYiPALvJFC1zYASZe-2">
          <mxGeometry relative="1" as="geometry">
            <mxPoint x="250" y="340" as="sourcePoint" />
          </mxGeometry>
        </mxCell>
        <mxCell id="R0VtYiPALvJFC1zYASZe-13" value="Specializes" style="edgeLabel;html=1;align=center;verticalAlign=middle;resizable=0;points=[];" vertex="1" connectable="0" parent="R0VtYiPALvJFC1zYASZe-8">
          <mxGeometry x="-0.0647" relative="1" as="geometry">
            <mxPoint as="offset" />
          </mxGeometry>
        </mxCell>
        <mxCell id="R0VtYiPALvJFC1zYASZe-15" style="edgeStyle=orthogonalEdgeStyle;rounded=0;orthogonalLoop=1;jettySize=auto;html=1;" edge="1" parent="1" source="R0VtYiPALvJFC1zYASZe-14" target="R0VtYiPALvJFC1zYASZe-1">
          <mxGeometry relative="1" as="geometry">
            <Array as="points">
              <mxPoint x="660" y="260" />
              <mxPoint x="660" y="260" />
            </Array>
          </mxGeometry>
        </mxCell>
        <mxCell id="R0VtYiPALvJFC1zYASZe-17" value="Manage events" style="edgeLabel;html=1;align=center;verticalAlign=middle;resizable=0;points=[];" vertex="1" connectable="0" parent="R0VtYiPALvJFC1zYASZe-15">
          <mxGeometry x="-0.0509" y="-1" relative="1" as="geometry">
            <mxPoint x="-4" as="offset" />
          </mxGeometry>
        </mxCell>
        <mxCell id="R0VtYiPALvJFC1zYASZe-29" style="edgeStyle=orthogonalEdgeStyle;rounded=0;orthogonalLoop=1;jettySize=auto;html=1;entryX=1;entryY=0.5;entryDx=0;entryDy=0;" edge="1" parent="1" source="R0VtYiPALvJFC1zYASZe-14" target="R0VtYiPALvJFC1zYASZe-1">
          <mxGeometry relative="1" as="geometry" />
        </mxCell>
        <mxCell id="R0VtYiPALvJFC1zYASZe-30" value="User Approval Request" style="edgeLabel;html=1;align=center;verticalAlign=middle;resizable=0;points=[];" vertex="1" connectable="0" parent="R0VtYiPALvJFC1zYASZe-29">
          <mxGeometry x="-0.0105" y="1" relative="1" as="geometry">
            <mxPoint as="offset" />
          </mxGeometry>
        </mxCell>
        <mxCell id="R0VtYiPALvJFC1zYASZe-14" value="Admin" style="rounded=0;whiteSpace=wrap;html=1;" vertex="1" parent="1">
          <mxGeometry x="700" y="240" width="120" height="80" as="geometry" />
        </mxCell>
        <mxCell id="R0VtYiPALvJFC1zYASZe-35" style="edgeStyle=orthogonalEdgeStyle;rounded=0;orthogonalLoop=1;jettySize=auto;html=1;exitX=0.5;exitY=0;exitDx=0;exitDy=0;entryX=0.853;entryY=0.03;entryDx=0;entryDy=0;entryPerimeter=0;" edge="1" parent="1" source="R0VtYiPALvJFC1zYASZe-1" target="R0VtYiPALvJFC1zYASZe-2">
          <mxGeometry relative="1" as="geometry">
            <Array as="points">
              <mxPoint x="450" y="160" />
              <mxPoint x="292" y="160" />
            </Array>
          </mxGeometry>
        </mxCell>
        <mxCell id="R0VtYiPALvJFC1zYASZe-36" value="Login/Registration Request response" style="edgeLabel;html=1;align=center;verticalAlign=middle;resizable=0;points=[];" vertex="1" connectable="0" parent="R0VtYiPALvJFC1zYASZe-35">
          <mxGeometry x="0.1628" relative="1" as="geometry">
            <mxPoint as="offset" />
          </mxGeometry>
        </mxCell>
        <mxCell id="R0VtYiPALvJFC1zYASZe-37" style="edgeStyle=orthogonalEdgeStyle;rounded=0;orthogonalLoop=1;jettySize=auto;html=1;exitX=1;exitY=0.25;exitDx=0;exitDy=0;entryX=0.387;entryY=0.006;entryDx=0;entryDy=0;entryPerimeter=0;" edge="1" parent="1" source="R0VtYiPALvJFC1zYASZe-2" target="R0VtYiPALvJFC1zYASZe-1">
          <mxGeometry relative="1" as="geometry" />
        </mxCell>
        <mxCell id="R0VtYiPALvJFC1zYASZe-38" value="Message Sent" style="edgeLabel;html=1;align=center;verticalAlign=middle;resizable=0;points=[];" vertex="1" connectable="0" parent="R0VtYiPALvJFC1zYASZe-37">
          <mxGeometry x="-0.1605" relative="1" as="geometry">
            <mxPoint as="offset" />
          </mxGeometry>
        </mxCell>
        <mxCell id="R0VtYiPALvJFC1zYASZe-45" style="edgeStyle=orthogonalEdgeStyle;rounded=0;orthogonalLoop=1;jettySize=auto;html=1;entryX=0.5;entryY=1;entryDx=0;entryDy=0;" edge="1" parent="1" source="R0VtYiPALvJFC1zYASZe-3" target="R0VtYiPALvJFC1zYASZe-1">
          <mxGeometry relative="1" as="geometry" />
        </mxCell>
        <mxCell id="R0VtYiPALvJFC1zYASZe-46" value="Create Event" style="edgeLabel;html=1;align=center;verticalAlign=middle;resizable=0;points=[];" vertex="1" connectable="0" parent="R0VtYiPALvJFC1zYASZe-45">
          <mxGeometry x="-0.1729" y="1" relative="1" as="geometry">
            <mxPoint as="offset" />
          </mxGeometry>
        </mxCell>
      </root>
    </mxGraphModel>
  </diagram>
</mxfile>
